<svg width="32" height="32" viewBox="0 0 32 32" fill="none" xmlns="http://www.w3.org/2000/svg">
<path d="M21.9765 12.0306C23.956 13.4722 26.3809 14.3205 29 14.3205V9.18574C28.5043 9.18584 28.0099 9.13318 27.525 9.02851V13.0703C24.9062 13.0703 22.4815 12.222 20.5015 10.7805V21.259C20.5015 26.5008 16.3307 30.7499 11.186 30.7499C9.26634 30.7499 7.48214 30.1587 6 29.1446C7.69162 30.9068 10.0507 32 12.6606 32C17.8056 32 21.9767 27.7509 21.9767 22.5089V12.0306H21.9765ZM23.7961 6.8503C22.7844 5.7243 22.1202 4.26916 21.9765 2.66043V2H20.5787C20.9306 4.04469 22.1306 5.79155 23.7961 6.8503ZM9.25403 25.1222C8.68883 24.3671 8.38339 23.4435 8.38476 22.4938C8.38476 20.0964 10.2925 18.1525 12.6461 18.1525C13.0847 18.1524 13.5207 18.2209 13.9387 18.356V13.1065C13.4502 13.0383 12.9572 13.0093 12.4644 13.02V17.1059C12.0461 16.9708 11.6099 16.9021 11.1711 16.9026C8.8175 16.9026 6.90988 18.8462 6.90988 21.244C6.90988 22.9394 7.86343 24.4072 9.25403 25.1222Z" fill="#edf9f2"/>
<path d="M21.7383 10.8568C23.7855 12.3108 26.2923 13.1664 29 13.1664V9.08951C27.4886 8.76952 26.1506 7.98445 25.1446 6.89247C23.4226 5.8244 22.1819 4.06236 21.8182 2H18.0222V22.687C18.0136 25.0986 16.0445 27.0514 13.6163 27.0514C12.1854 27.0514 10.9142 26.3734 10.1091 25.3232C8.67148 24.602 7.6856 23.1213 7.6856 21.4114C7.6856 18.993 9.65791 17.0322 12.0913 17.0322C12.5576 17.0322 13.0069 17.1044 13.4285 17.2374V13.1159C8.20275 13.2232 4 17.4674 4 22.6871C4 25.2927 5.04658 27.6548 6.74519 29.3807C8.27759 30.4035 10.1223 31 12.107 31C17.4263 31 21.7384 26.7138 21.7384 21.4264V10.8568H21.7383Z" fill="#edf9f2"/>
<path d="M29 8.45492V7.33875C27.6641 7.34083 26.3543 6.95669 25.2209 6.23025C26.2243 7.35814 27.5455 8.13584 29 8.45492ZM21.9603 1.27663C21.9263 1.07706 21.9002 0.876172 21.882 0.674518V0H16.7445V20.9462C16.7363 23.3877 14.8063 25.365 12.4259 25.365C11.7271 25.365 11.0673 25.1946 10.483 24.892C11.2721 25.9552 12.5182 26.6416 13.9208 26.6416C16.3007 26.6416 18.2311 24.6646 18.2394 22.2227V1.27663H21.9603ZM13.7368 12.5317V11.3435C13.3075 11.2832 12.8747 11.253 12.4414 11.2532C7.22695 11.2531 3 15.593 3 20.9462C3 24.3024 4.66127 27.2601 7.18569 29C5.52069 27.2526 4.49482 24.8608 4.49482 22.2226C4.49482 16.9377 8.61429 12.6404 13.7368 12.5317Z" fill="#edf9f2"/>
</svg>
