<svg preserveAspectRatio="none" width="100%" height="100%" overflow="visible" style="display: block;" viewBox="0 0 24 24" fill="none" xmlns="http://www.w3.org/2000/svg">
<g id="Instagram Outline">
<path id="Vector" d="M3.48868 18.0167L3.48493 18.0069C3.26784 17.4487 3.10842 16.7909 3.06165 15.768C3.01182 14.6758 2.99998 14.3381 2.99998 11.5063C2.99998 8.67508 3.01251 8.33659 3.06168 7.24463C3.10845 6.22264 3.26847 5.56351 3.48488 5.00401L3.48779 4.99628C3.70224 4.42695 4.03819 3.91118 4.47225 3.48489L4.47834 3.4789L4.48432 3.47281C4.91097 3.0382 5.42692 2.70258 5.99576 2.4887L6.00557 2.48494C6.56379 2.26786 7.22163 2.10843 8.24448 2.06167C9.33669 2.01184 9.67506 2 12.5062 2C15.3374 2 15.6756 2.01251 16.7676 2.06168C17.7897 2.10843 18.449 2.26843 19.0085 2.48486L19.0162 2.48781C19.5856 2.70226 20.1013 3.03821 20.5276 3.47226L20.5335 3.47829L20.5396 3.48421C20.9737 3.91055 21.3096 4.42645 21.5239 4.99595L21.5276 5.00559C21.7446 5.5638 21.9041 6.22165 21.9508 7.24449M3.06168 7.24463L3.06168 7.52008M3.48868 18.0167C3.70256 18.5856 4.03818 19.1015 4.4728 19.5282L4.47888 19.5342L4.48485 19.5402C4.91117 19.9743 5.42695 20.3102 5.99629 20.5247L6.00479 20.5279C6.56352 20.7446 7.22168 20.9041 8.24448 20.9509M3.48868 18.0167L3.47586 17.9492M3.06165 15.768L3.0784 15.8562M3.06165 15.768L3.06165 15.4919M3.47586 17.9492L3.0784 15.8562M3.47586 17.9492C3.30705 17.5032 3.13323 16.881 3.0784 15.8562M3.47586 17.9492C3.48178 17.9649 3.48769 17.9803 3.4936 17.9955C3.70768 18.5726 4.04687 19.0952 4.4868 19.5256C4.9171 19.9655 5.43945 20.3046 6.01637 20.5187C6.47936 20.699 7.13174 20.8875 8.24432 20.9385C9.36711 20.9896 9.714 21 12.5062 21C15.2985 21 15.6457 20.9896 16.7685 20.9385C17.8824 20.8874 18.534 20.6979 18.9954 20.5189C19.5726 20.305 20.0953 19.9657 20.5257 19.5256C20.9655 19.0953 21.3046 18.573 21.5187 17.9961C21.699 17.5331 21.8875 16.8808 21.9385 15.7682C21.9896 14.6454 22 14.2978 22 11.5063C22 8.71471 21.9895 8.36683 21.9384 7.24404C21.8871 6.12426 21.6959 5.47168 21.5161 5.00991C21.2811 4.40322 20.9831 3.94437 20.525 3.48627C20.0678 3.02999 19.6102 2.73179 19.003 2.49654C18.5396 2.31536 17.8866 2.1253 16.7685 2.07406C16.6712 2.06964 16.5798 2.06551 16.4921 2.06168M3.0784 15.8562C3.07685 15.8273 3.0754 15.798 3.07405 15.7685C3.06962 15.6712 3.06549 15.5797 3.06165 15.4919M8.24448 2.06167L8.52063 2.06167M16.7676 2.06168L16.4921 2.06168M8.52063 2.06167L16.4921 2.06168M8.52063 2.06167C9.44549 2.02123 9.95667 2.01252 12.5062 2.01252C15.056 2.01252 15.5671 2.02123 16.4921 2.06168M8.52063 2.06167C8.43285 2.06551 8.34135 2.06963 8.24403 2.07406C7.13005 2.12511 6.47844 2.31463 6.01709 2.49357C5.43768 2.70836 4.91329 3.04936 4.48193 3.49186C4.02811 3.94755 3.73106 4.40421 3.49656 5.00939C3.31537 5.4728 3.12528 6.12613 3.07403 7.24434C3.06962 7.34135 3.06551 7.43257 3.06168 7.52008M21.9508 15.768C21.9041 16.7908 21.7446 17.449 21.5279 18.0077L21.5247 18.0162C21.3102 18.5856 20.9743 19.1013 20.5402 19.5276L20.5341 19.5336L20.5282 19.5397C20.1015 19.9743 19.5856 20.3099 19.0167 20.5238L19.0069 20.5276C18.4487 20.7447 17.7909 20.9041 16.768 20.9509M3.06165 15.4919C3.02121 14.567 3.01251 14.0558 3.01251 11.5063C3.01251 8.9559 3.02121 8.44544 3.06168 7.52008M3.06165 15.4919L3.06168 7.52008M10.8155 15.5881C11.3515 15.8101 11.9261 15.9244 12.5062 15.9244C13.678 15.9244 14.8018 15.4589 15.6304 14.6304C16.4589 13.8018 16.9244 12.678 16.9244 11.5063C16.9244 10.3345 16.4589 9.21072 15.6304 8.38215C14.8018 7.55358 13.678 7.0881 12.5062 7.0881C11.926 7.0881 11.3515 7.20238 10.8155 7.42441C10.2795 7.64645 9.7924 7.97188 9.38214 8.38215C8.97188 8.79241 8.64644 9.27947 8.4244 9.8155C8.20237 10.3515 8.08809 10.9261 8.08809 11.5063C8.08809 12.0865 8.20237 12.661 8.4244 13.197C8.64644 13.7331 8.97188 14.2201 9.38214 14.6304C9.7924 15.0406 10.2795 15.3661 10.8155 15.5881ZM9.3723 8.37231C10.2035 7.54113 11.3308 7.07418 12.5062 7.07418C13.6817 7.07418 14.809 7.54113 15.6402 8.37231C16.4714 9.20348 16.9383 10.3308 16.9383 11.5063C16.9383 12.6817 16.4714 13.809 15.6402 14.6402C14.809 15.4714 13.6817 15.9383 12.5062 15.9383C11.3308 15.9383 10.2035 15.4714 9.3723 14.6402C8.54112 13.809 8.07417 12.6817 8.07417 11.5063C8.07417 10.3308 8.54112 9.20348 9.3723 8.37231ZM19.434 6.04229C19.434 6.37873 19.3004 6.70139 19.0625 6.93929C18.8246 7.17719 18.5019 7.31083 18.1655 7.31083C17.829 7.31083 17.5064 7.17719 17.2685 6.93929C17.0306 6.70139 16.8969 6.37873 16.8969 6.04229C16.8969 5.70585 17.0306 5.38319 17.2685 5.14529C17.5064 4.90739 17.829 4.77374 18.1655 4.77374C18.5019 4.77374 18.8246 4.90739 19.0625 5.14529C19.3004 5.38319 19.434 5.70585 19.434 6.04229Z" stroke="#edf9f2" stroke-linejoin="round"/>
</g>
</svg>
