<svg preserveAspectRatio="none" width="100%" height="100%" overflow="visible" style="display: block;" viewBox="0 0 864 400" fill="none" xmlns="http://www.w3.org/2000/svg">
<g id="Main Container" clip-path="url(#clip0_0_11)">
<path id="Union" d="M718.457 123.244L747.09 4.76562L748.062 5L719.219 124.346L722.971 124.004L723.03 124.667L723.15 124.008L873.238 151.016L873.062 152L724.12 125.197L798.756 497.379L870.06 399.003L870.869 399.59L799.748 497.714L869.062 486L869.229 486.986L799.386 498.79L869.694 556.226L869.062 557L799.182 499.915L838.942 821.983L870.736 811.055L871.062 812L839.456 822.864L869.704 848.233L869.062 849L838.963 823.756L804.052 1066.14L803.062 1066L838.062 823L404.023 797.116L807.415 1069.03L807.702 1069.06L807.772 1069.04L807.781 1069.07L870.172 1076.01L870.062 1077L808.06 1070.11L807.997 1073.57L846.85 1123.38L846.062 1124L807.969 1075.16L807.062 1126.02L806.062 1126L807.056 1070.3L629.062 1124L628.772 1123.04L806.3 1069.49L403.345 797.864L496.023 1125.73L495.062 1126L402.074 797.047L402.039 797.213L401.873 797.177L120.076 1063.04L120.039 1063.21L119.989 1063.2L365.306 1125.03L365.062 1126L120.951 1064.48L180.769 1124.29L180.062 1125L119.222 1064.16L127.053 1123.87L126.062 1124L118.219 1064.2L5.06152 1091L4.83105 1090.03L117.792 1063.27L4.44141 973.784L5.06152 973L118.844 1062.83L119.165 1062.52L192.752 725.415L5.06152 785L4.75879 784.047L192.957 724.301L192.961 724.287L4.06152 602L4.60449 601.16L194.062 723.809L200.034 501.001L4.06152 513L4 512.002L199.954 500.004L159.349 122.684L4.87109 335.587L4.06152 335L159.189 121.201L159.168 121H159.062L5.06152 98L5.20898 97.0107L159.062 119.988V5H160.062V119.345L247.265 4.39551L248.062 5L160.78 120.051L492.035 144.92L469.075 5.16211L470.062 5L493.06 144.995L718.136 124.444L622.281 4.625L623.062 4L718.457 123.244ZM120.454 1061.31L400.882 796.735L400.807 796.625L193.798 725.311L120.454 1061.31ZM404.828 796.163L837.937 821.99L798.09 499.23L404.828 796.163ZM402.3 796.012L403.29 796.071L797.887 498.131L797.857 497.983L474.848 463.09L402.3 796.012ZM201.165 500.847L401.354 795.652L473.836 463.031L201.165 500.847ZM195.038 724.68L399.869 795.244L200.998 502.379L195.038 724.68ZM160.225 121.477L200.943 499.868L473.239 462.104L160.346 121.31L160.225 121.477ZM475.151 461.52L475.115 462.113L797.651 496.955L723.062 125.007L723.057 125.006L475.151 461.52ZM473.977 461.43L474.17 461.167L493.002 145.995L161.519 121.107L473.977 461.43ZM494.008 145.913L475.261 459.687L721.73 125.12L494.008 145.913Z" fill="var(--fill-0, white)" fill-opacity="0.15"/>
</g>
<defs>
<clipPath id="clip0_0_11">
<rect width="864" height="400" fill="white"/>
</clipPath>
</defs>
</svg>
