<svg preserveAspectRatio="none" width="100%" height="100%" overflow="visible" style="display: block;" viewBox="0 0 1339 1728" fill="none" xmlns="http://www.w3.org/2000/svg">
<path id="Union" d="M1100.57 183.646L1144.68 1.17913L1146.17 1.54008L1101.74 185.342L1107.52 184.816L1107.62 185.837L1107.8 184.822L1339 226.416L1338.73 227.932L1109.29 186.654L1224.26 759.844L1334.1 608.337L1335.35 609.241L1225.79 760.36L1332.57 742.32L1332.82 743.839L1225.24 762.018L1333.54 850.473L1332.57 851.666L1224.92 763.75L1286.17 1259.76L1335.15 1242.93L1335.65 1244.39L1286.96 1261.12L1333.56 1300.19L1332.57 1301.37L1286.2 1262.49L1232.42 1635.79L1230.9 1635.57L1284.81 1261.33L616.208 1221.46L1237.6 1640.24L1238.05 1640.29L1238.15 1640.25L1238.17 1640.3L1334.28 1650.98L1334.11 1652.51L1238.6 1641.9L1238.5 1647.23L1298.35 1723.95L1297.14 1724.89L1238.46 1649.68L1237.06 1728L1235.52 1727.97L1237.05 1642.19L962.863 1724.89L962.418 1723.42L1235.89 1640.94L615.162 1222.62L757.927 1727.55L756.445 1727.97L613.205 1221.36L613.151 1221.61L612.895 1221.56L178.807 1631.01L178.75 1631.28L178.673 1631.26L556.566 1726.48L556.19 1727.97L180.155 1633.22L272.299 1725.34L271.21 1726.43L177.491 1632.73L189.554 1724.69L188.027 1724.89L175.946 1632.79L1.6352 1674.07L1.28018 1672.57L175.288 1631.37L0.679955 1493.55L1.6352 1492.34L176.909 1630.68L177.404 1630.22L290.759 1111.04L1.6352 1202.8L1.16886 1201.34L291.075 1109.32L291.081 1109.3L0.0947725 920.97L0.931177 919.676L292.776 1108.56L301.977 765.423L0.0947725 783.902L0 782.365L301.853 763.887L239.304 182.783L1.34186 510.671L0.0947725 509.767L239.058 180.5L239.025 180.19H238.861L1.6352 144.768L1.86235 143.244L238.861 178.632V1.54008H240.402V177.64L374.732 0.609115L375.959 1.54008L241.509 178.728L751.784 217.028L716.415 1.78974L717.935 1.54008L753.362 217.144L1100.08 185.494L952.418 0.962552L953.62 0L1100.57 183.646ZM179.389 1628.34L611.368 1220.88L611.252 1220.71L292.37 1110.88L179.389 1628.34ZM617.447 1220L1284.62 1259.77L1223.24 762.696L617.447 1220ZM613.553 1219.76L615.078 1219.86L1222.93 761.002L1222.88 760.775L725.307 707.036L613.553 1219.76ZM303.719 765.185L612.096 1219.21L723.749 706.946L303.719 765.185ZM294.281 1109.91L609.808 1218.58L303.462 767.545L294.281 1109.91ZM240.653 180.924L303.377 763.678L722.83 705.519L240.839 180.666L240.653 180.924ZM725.775 704.618L725.72 705.532L1222.56 759.192L1107.66 186.361L1107.66 186.359L725.775 704.618ZM723.966 704.48L724.263 704.075L753.273 218.684L242.646 180.355L723.966 704.48ZM754.822 218.558L725.944 701.795L1105.61 186.535L754.822 218.558Z" fill="var(--fill-0, white)" fill-opacity="0.15"/>
</svg>
